<svg width="300" height="300" viewBox="0 0 300 300" fill="none" xmlns="http://www.w3.org/2000/svg">
<path d="M18.9074 104.055V103.847C18.9071 83.3332 24.6592 63.2788 35.4379 46.2139C46.2166 29.1491 61.539 15.8384 79.472 7.9612C97.405 0.08403 117.145 -2.00671 136.202 1.95275C155.259 5.9122 172.778 15.7445 186.55 30.2091C197.386 24.5601 209.49 22.185 221.523 23.3462C233.557 24.5074 245.053 29.1596 254.74 36.7888C264.427 44.4181 271.929 54.7274 276.417 66.5778C280.905 78.4281 282.204 91.3582 280.171 103.939C283.16 104.233 286.061 105.173 288.691 106.703C291.321 108.233 293.624 110.319 295.457 112.831C297.29 115.342 298.613 118.226 299.343 121.302C300.074 124.378 300.196 127.58 299.703 130.709C289.828 193.454 265.401 233.17 226.467 249.877V265.385C226.467 274.565 223.014 283.37 216.868 289.861C210.722 296.353 202.387 300 193.695 300H106.301C97.6092 300 89.2734 296.353 83.1273 289.861C76.9813 283.37 73.5284 274.565 73.5284 265.385V249.877C34.5946 233.17 10.168 193.454 0.292565 130.709C-0.184042 127.663 -0.0774707 124.548 0.605971 121.547C1.28941 118.547 2.53584 115.721 4.27148 113.238C6.00712 110.755 8.19671 108.665 10.7107 107.092C13.2246 105.518 16.0118 104.493 18.9074 104.078V104.055ZM40.7558 103.847H62.6042C62.6042 88.5463 68.3589 73.8721 78.6024 63.0527C88.8458 52.2334 102.739 46.1551 117.225 46.1551C131.712 46.1551 145.605 52.2334 155.848 63.0527C166.092 73.8721 171.846 88.5463 171.846 103.847H193.695C193.695 82.4259 185.638 61.8821 171.297 46.735C156.956 31.5879 137.506 23.0783 117.225 23.0783C96.9443 23.0783 77.494 31.5879 63.1532 46.735C48.8124 61.8821 40.7558 82.4259 40.7558 103.847ZM84.4526 103.847H149.998C149.998 94.6666 146.545 85.8621 140.399 79.3705C134.253 72.8789 125.917 69.2319 117.225 69.2319C108.533 69.2319 100.198 72.8789 94.0515 79.3705C87.9055 85.8621 84.4526 94.6666 84.4526 103.847ZM234.464 103.847H257.863C259.513 97.0273 259.667 89.8998 258.313 83.0077C256.959 76.1155 254.134 69.6407 250.053 64.0766C245.971 58.5124 240.741 54.0058 234.76 50.9C228.78 47.7943 222.207 46.1715 215.543 46.1551C210.299 46.1551 205.318 47.1244 200.686 48.9013C204.553 55.4551 207.743 62.5166 210.19 69.9243C214.352 68.8341 218.724 69.0586 222.766 70.5698C226.808 72.081 230.34 74.8125 232.925 78.4253C235.511 82.038 237.034 86.373 237.308 90.8923C237.581 95.4115 236.592 99.9162 234.464 103.847ZM204.619 253.846H95.3768V265.385C95.3768 268.445 96.5278 271.38 98.5765 273.544C100.625 275.708 103.404 276.923 106.301 276.923H193.695C196.592 276.923 199.371 275.708 201.419 273.544C203.468 271.38 204.619 268.445 204.619 265.385V253.846ZM87.6862 230.77H212.31C246.961 219 268.897 185.724 278.161 126.924H21.8351C31.0988 185.724 53.0346 219 87.6862 230.77Z" fill="#1A1A19"/>
</svg>
