<svg width="239" height="300" viewBox="0 0 239 300" fill="none" xmlns="http://www.w3.org/2000/svg">
<path fill-rule="evenodd" clip-rule="evenodd" d="M119.5 20.3883C90.6764 20.3883 67.3102 43.6434 67.3102 72.3301C67.3102 101.017 90.6764 124.272 119.5 124.272C148.323 124.272 171.69 101.017 171.69 72.3301C171.69 43.6435 148.323 20.3883 119.5 20.3883ZM46.8245 72.3301C46.8245 32.3833 79.3624 0 119.5 0C159.637 0 192.176 32.3832 192.176 72.3301C192.176 112.277 159.637 144.66 119.5 144.66C79.3624 144.66 46.8245 112.277 46.8245 72.3301ZM119.5 191.262C64.816 191.262 20.4857 235.382 20.4857 289.806C20.4857 295.436 15.8998 300 10.2429 300C4.58588 300 0 295.436 0 289.806C0 224.121 53.502 170.874 119.5 170.874C185.498 170.874 239 224.121 239 289.806C239 295.436 234.414 300 228.757 300C223.1 300 218.514 295.436 218.514 289.806C218.514 235.382 174.184 191.262 119.5 191.262Z" fill="#1A1A19"/>
</svg>
